<?xml version="1.0" encoding="UTF-8"?>
<svg width="127px" height="23px" viewBox="0 0 127 23" version="1.1" xmlns="http://www.w3.org/2000/svg" xmlns:xlink="http://www.w3.org/1999/xlink">
    <!-- Generator: Sketch 62 (91390) - https://sketch.com -->
    <title>Group 21</title>
    <desc>Created with Sketch.</desc>
    <g id="Page-1" stroke="none" stroke-width="1" fill="none" fill-rule="evenodd">
        <g id="Suburb-Page" transform="translate(-666.000000, -11584.000000)" fill="#F57876">
            <g id="Group-21" transform="translate(666.000000, 11584.000000)">
                <polygon id="Star" points="12.5 18.75 5.15268435 22.6127124 6.55589677 14.4313562 0.611793546 8.63728757 8.82634217 7.44364379 12.5 0 16.1736578 7.44364379 24.3882065 8.63728757 18.4441032 14.4313562 19.8473157 22.6127124"></polygon>
                <polygon id="Star" points="38.5 18.75 31.1526843 22.6127124 32.5558968 14.4313562 26.6117935 8.63728757 34.8263422 7.44364379 38.5 0 42.1736578 7.44364379 50.3882065 8.63728757 44.4441032 14.4313562 45.8473157 22.6127124"></polygon>
                <polygon id="Star" points="64.5 18.75 57.1526843 22.6127124 58.5558968 14.4313562 52.6117935 8.63728757 60.8263422 7.44364379 64.5 0 68.1736578 7.44364379 76.3882065 8.63728757 70.4441032 14.4313562 71.8473157 22.6127124"></polygon>
                <polygon id="Star" points="89.5 18.75 82.1526843 22.6127124 83.5558968 14.4313562 77.6117935 8.63728757 85.8263422 7.44364379 89.5 0 93.1736578 7.44364379 101.388206 8.63728757 95.4441032 14.4313562 96.8473157 22.6127124"></polygon>
                <polygon id="Star" points="114.5 18.75 107.152684 22.6127124 108.555897 14.4313562 102.611794 8.63728757 110.826342 7.44364379 114.5 0 118.173658 7.44364379 126.388206 8.63728757 120.444103 14.4313562 121.847316 22.6127124"></polygon>
            </g>
        </g>
    </g>
</svg>